:version 1.10
:name ASF
:units
  mass 1
  length 1
  angle deg
:documentation
  ASF file generated by Kaydara
:root
  axis xyz
  order  tx ty tz rx ry rz
  position 0 0 0
  orientation 0 0 0
:bonedata
  begin
    id 1
    name RightUpLegDummy
    direction -1 2.30186e-007 8.31532e-007
    length 4.04083
    axis 0 0 0 xyz
  end
  begin
    id 2
    name RightUpLeg
    direction -0.000919234 -0.999985 0.00544864
    length 17.4221
    axis -3.80308 -0.00076134 -0.0523649 xyz
    dof rx ry rz
  end
  begin
    id 3
    name RightLeg
    direction -0.000919271 -0.999984 -0.00555045
    length 17.1239
    axis 4.00314 0.0181274 -0.183583 xyz
    dof rx ry rz
  end
  begin
    id 4
    name RightFoot
    direction -2.57843e-005 -4.04509e-007 1
    length 6.72091
    axis 8.18909e-005 -0.122003 -0.403008 xyz
    dof rx ry rz
  end
  begin
    id 5
    name RightToes
    direction 0.00116825 -0.014069 0.9999
    length 3.85082
    axis 0.000514414 0.540638 -0.356797 xyz
    dof rx ry rz
  end
  begin
    id 6
    name SpineDummy
    direction 0.0168869 0.966876 -0.254689
    length 6.99894
    axis 0 0 0 xyz
  end
  begin
    id 7
    name Spine
    direction -0.0132008 0.999903 0.00446247
    length 11.1999
    axis -0.00148109 0.00725429 0.756411 xyz
    dof rx ry rz
  end
  begin
    id 8
    name Spine1
    direction 0 0 0
    length 0
    axis -0.000934958 0.0245693 1.46543 xyz
    dof rx ry rz
  end
  begin
    id 9
    name HEadDummy
    direction -0.0255732 0.999672 0.00128215
    length 3.43865
    axis -0.000934958 0.0245693 1.46543 xyz
  end
  begin
    id 10
    name HEad
    direction -0.0472656 0.980052 0.19304
    length 5.12695
    axis -0.000934954 0.0245693 1.46543 xyz
    dof rx ry rz
  end
  begin
    id 11
    name LeftShoulder1Dummy
    direction 0.953098 0.301717 -0.023914
    length 3.68488
    axis -0.000934958 0.0245693 1.46543 xyz
  end
  begin
    id 12
    name LeftShoulder1
    direction 0.962466 0.271167 0.0112566
    length 3.13809
    axis -0.000934958 0.0245693 1.46543 xyz
    dof rx ry rz
  end
  begin
    id 13
    name LeftArm
    direction 0.999943 0.00455037 -0.00961766
    length 11.3419
    axis -23.1648 0.685459 1.22814 xyz
    dof rx ry rz
  end
  begin
    id 14
    name LeftForeArm
    direction 0.999332 0.0131969 0.0340885
    length 8.70632
    axis -9.90633 0.618216 0.0826942 xyz
    dof rx ry rz
  end
  begin
    id 15
    name LeftHand
    direction 0.994373 -0.0366703 0.0993905
    length 5.32135
    axis 0.00675269 0.680415 0.445699 xyz
    dof rx ry rz
  end
  begin
    id 16
    name RightShoulderDummy
    direction -0.967298 0.252589 -0.0230903
    length 3.68488
    axis -0.000934958 0.0245693 1.46543 xyz
  end
  begin
    id 17
    name RightShoulder
    direction -0.975062 0.221602 0.0120823
    length 3.13809
    axis 0.216257 0.0246515 1.45863 xyz
    dof rx ry rz
  end
  begin
    id 18
    name RightArm
    direction -0.99886 -0.00851186 -0.0469687
    length 10.3947
    axis -23.196 0.23503 -0.532632 xyz
    dof rx ry rz
  end
  begin
    id 19
    name RightForeArm
    direction -0.99909 0.00114866 0.0426317
    length 8.68355
    axis -9.91764 -0.134943 0.610517 xyz
    dof rx ry rz
  end
  begin
    id 20
    name RightHand
    direction -0.992888 -0.0489538 0.10852
    length 5.28593
    axis -0.00275396 -0.197403 0.246414 xyz
    dof rx ry rz
  end
  begin
    id 21
    name LeftUpLegDummy
    direction 1 -2.30186e-007 -8.31532e-007
    length 4.04083
    axis 0 0 0 xyz
  end
  begin
    id 22
    name LeftUpLeg
    direction -0.000920097 -1 2.79241e-006
    length 17.4221
    axis -3.48782 0.00143434 -0.0532288 xyz
    dof rx ry rz
  end
  begin
    id 23
    name LeftLeg
    direction -0.000920097 -1 2.7912e-006
    length 17.1239
    axis 3.68162 -0.00806512 -0.0529896 xyz
    dof rx ry rz
  end
  begin
    id 24
    name LeftFoot
    direction -2.57845e-005 -3.987e-007 1
    length 6.72091
    axis 3.02372e-005 -0.00147829 -0.214229 xyz
    dof rx ry rz
  end
  begin
    id 25
    name LeftToes
    direction 0.00813577 -0.00488255 0.999955
    length 3.85048
    axis 3.89895e-005 -0.0014783 -0.214229 xyz
    dof rx ry rz
  end
:hierarchy
  begin
    root RightUpLegDummy SpineDummy LeftUpLegDummy
    RightUpLegDummy RightUpLeg
    RightUpLeg RightLeg
    RightLeg RightFoot
    RightFoot RightToes
    SpineDummy Spine
    Spine Spine1
    Spine1 HEadDummy LeftShoulder1Dummy RightShoulderDummy
    HEadDummy HEad
    LeftShoulder1Dummy LeftShoulder1
    LeftShoulder1 LeftArm
    LeftArm LeftForeArm
    LeftForeArm LeftHand
    RightShoulderDummy RightShoulder
    RightShoulder RightArm
    RightArm RightForeArm
    RightForeArm RightHand
    LeftUpLegDummy LeftUpLeg
    LeftUpLeg LeftLeg
    LeftLeg LeftFoot
    LeftFoot LeftToes
  end

:SAMPLES-PER-SECOND 30
:FULLY-SPECIFIED
:DEGREES
98
root  -43.5028 34.7128 23.1873 -170.414 63.5369 -178.435
RightUpLeg  -8.26826 -15.8828 -3.59132
RightLeg  6.54428 -2.34659 -0.115942
RightFoot  7.58175 0.0453838 -0.139884
RightToes  -32.5966 -0.161897 -0.269239
Spine  -1.87478 0.141641 0.163104
Spine1  -3.80913 0.366815 1.00617
HEad  -66.9727 -1.08227 3.04134
LeftShoulder1  -1.94126e-019 -3.10601e-018 -2.51263e-017
LeftArm  -8.95452 23.5579 -80.9836
LeftForeArm  34.8511 -16.1536 -2.57918
LeftHand  -0.469043 -2.10895 7.35771
RightShoulder  -4.96962e-017 0 -2.36833e-017
RightArm  -23.3722 -21.3882 78.422
RightForeArm  58.0945 14.1807 1.20605
RightHand  -0.387641 -0.965374 -10.1764
LeftUpLeg  -4.92211 8.01967 5.23067
LeftLeg  3.31028 14.0772 -0.0908239
LeftFoot  8.00725 -0.128965 2.13464
LeftToes  -29.6925 2.32378e-006 -5.43956e-008
99
root  -43.4628 34.7133 23.2067 -170.411 63.767 -178.423
RightUpLeg  -8.3386 -15.577 -3.55334
RightLeg  6.71418 -2.43458 -0.127554
RightFoot  7.43565 0.0447523 -0.14485
RightToes  -32.5811 -0.160067 -0.267504
Spine  -1.85177 0.120742 0.166303
Spine1  -3.76256 0.32473 1.0155
HEad  -67.1748 -0.981375 3.08802
LeftShoulder1  -1.94126e-019 -3.10601e-018 -2.51263e-017
LeftArm  -8.87568 23.556 -80.9617
LeftForeArm  34.9062 -16.0214 -2.56677
LeftHand  -0.46669 -2.04157 7.46136
RightShoulder  -4.96962e-017 0 -2.36833e-017
RightArm  -22.8614 -21.4586 78.5049
RightForeArm  57.6694 14.4535 1.17233
RightHand  -0.39139 -0.893615 -10.0606
LeftUpLeg  -4.83462 8.09685 5.28215
LeftLeg  3.34173 14.2101 -0.083941
LeftFoot  7.9986 -0.130637 2.15276
LeftToes  -29.7483 2.32378e-006 -5.43956e-008
100
root  -43.406 34.7134 23.2283 -170.315 64.0303 -178.341
RightUpLeg  -8.37514 -15.3512 -3.47146
RightLeg  6.7869 -2.39019 -0.128251
RightFoot  7.32149 0.0432136 -0.134735
RightToes  -32.5191 -0.158087 -0.265624
Spine  -1.84336 0.0987246 0.189024
Spine1  -3.74429 0.280243 1.06503
HEad  -67.2578 -0.882098 3.08546
LeftShoulder1  -1.94126e-019 -3.10601e-018 -2.51263e-017
LeftArm  -8.89685 23.5933 -81.0048
LeftForeArm  34.8972 -15.8557 -2.5504
LeftHand  -0.465705 -2.0235 7.51385
RightShoulder  -4.96962e-017 0 -2.36833e-017
RightArm  -22.3109 -21.5646 78.5407
RightForeArm  57.1659 14.7461 1.13946
RightHand  -0.3881 -0.913624 -10.0179
LeftUpLeg  -4.84426 8.12775 5.37015
LeftLeg  3.57738 14.4303 -0.0265144
LeftFoot  7.87831 -0.131357 2.15537
LeftToes  -29.7211 2.32378e-006 -5.43956e-008
101
root  -43.3405 34.7128 23.2566 -170.1 64.2932 -178.182
RightUpLeg  -8.37621 -14.7121 -3.36752
RightLeg  6.76282 -2.62027 -0.13958
RightFoot  7.20987 0.043997 -0.157963
RightToes  -32.3228 -0.156046 -0.263686
Spine  -1.84259 0.0800356 0.22852
Spine1  -3.74141 0.243552 1.14684
HEad  -67.3601 -0.786635 3.10639
LeftShoulder1  -1.94126e-019 -3.10601e-018 -2.51263e-017
LeftArm  -8.91315 23.617 -81.0959
LeftForeArm  34.9278 -15.7133 -2.53674
LeftHand  -0.466232 -1.97647 7.47191
RightShoulder  -4.96962e-017 0 -2.36833e-017
RightArm  -21.8542 -21.6538 78.5341
RightForeArm  56.6798 15.0236 1.11214
RightHand  -0.37872 -0.968431 -9.88919
LeftUpLeg  -4.91021 8.29444 5.49948
LeftLeg  3.83102 14.5307 0.0369113
LeftFoot  7.7772 -0.131257 2.14451
LeftToes  -29.7128 2.32378e-006 -5.43956e-008
102
root  -43.2629 34.7103 23.2918 -169.877 64.5273 -178.002
RightUpLeg  -8.47189 -14.7041 -3.16716
RightLeg  6.88828 -2.56277 -0.142121
RightFoot  7.03052 0.0419522 -0.143203
RightToes  -32.3041 -0.154036 -0.261775
Spine  -1.82366 0.0458823 0.271403
Spine1  -3.70303 0.176069 1.23429
HEad  -67.5435 -0.668583 3.15475
LeftShoulder1  -1.94126e-019 -3.10601e-018 -2.51263e-017
LeftArm  -8.84556 23.6099 -81.2014
LeftForeArm  34.9972 -15.6211 -2.52684
LeftHand  -0.465392 -1.99063 7.51178
RightShoulder  -4.96962e-017 0 -2.36833e-017
RightArm  -21.4661 -21.6821 78.5098
RightForeArm  56.3937 15.2365 1.09253
RightHand  -0.382907 -0.904639 -9.86388
LeftUpLeg  -4.93253 8.13596 5.65123
LeftLeg  4.04743 14.95 0.0937676
LeftFoot  7.66601 -0.133923 2.17591
LeftToes  -29.5631 2.32378e-006 -5.43956e-008
